<?xml version="1.0" encoding="UTF-8" standalone="no"?>
<svg width="60px" height="43px" viewBox="0 0 60 43" version="1.1" xmlns="http://www.w3.org/2000/svg" xmlns:xlink="http://www.w3.org/1999/xlink">
    <title>Docker</title>
    <g stroke="none" stroke-width="1" fill="none" fill-rule="evenodd">
        <g transform="translate(0.000000, 3.000000)" fill="#2496ED">
            <path d="M12,0 h9 v9 h-9 z M24,0 h9 v9 h-9 z M36,0 h9 v9 h-9 z M12,12 h9 v9 h-9 z M24,12 h9 v9 h-9 z M36,12 h9 v9 h-9 z M0,12 h9 v9 h-9 z M12,24 h9 v9 h-9 z M24,24 h9 v9 h-9 z"></path>
            <path d="M56.942,19.826 c-0.79,-0.56 -2.639,-0.764 -4.055,-0.486 c-0.165,-1.215 -0.84,-2.275 -1.732,-3.206 l-0.587,-0.487 l-0.391,0.657 c-0.777,1.316 -0.981,3.485 -0.485,4.921 c0.184,0.535 0.468,1.052 0.84,1.46 c-0.586,0.292 -1.751,0.56 -3.301,0.535 H0.011 c-0.651,3.962 0.391,9.121 3.027,12.607 c2.311,2.802 5.721,4.227 10.22,4.227 c9.713,0 17.667,-4.47 21.297,-12.607 c1.384,0.024 4.376,0 5.556,-2.924 c0.037,-0.073 0.11,-0.268 0.348,-0.901 l0.128,-0.34 l-0.238,-0.268 c-0.651,-0.754 -2.128,-1.096 -3.301,-1.096 l-0.128,0 c-0.201,1.169 -0.777,2.192 -1.604,2.972 l-0.55,0.511 l0.55,-0.511 c0.827,-0.78 1.403,-1.803 1.604,-2.972 l0.128,0 c1.173,0 2.65,0.342 3.301,1.096 l0.238,0.268 l-0.128,0.34 c-0.238,0.633 -0.311,0.828 -0.348,0.901 c-1.18,2.924 -4.172,2.948 -5.556,2.924 c-3.63,8.137 -11.584,12.607 -21.297,12.607 c-4.499,0 -7.909,-1.425 -10.22,-4.227 c-2.636,-3.486 -3.678,-8.645 -3.027,-12.607 h47.811 c1.55,0.025 2.715,-0.243 3.301,-0.535 c-0.372,-0.408 -0.656,-0.925 -0.84,-1.46 c-0.496,-1.436 -0.292,-3.605 0.485,-4.921 l0.391,-0.657 l0.587,0.487 c0.892,0.931 1.567,1.991 1.732,3.206 c1.416,-0.278 3.265,-0.074 4.055,0.486 c0.981,0.706 1.271,2.729 0.743,4.324 C59.252,20.434 57.575,20.288 56.942,19.826 z"></path>
        </g>
    </g>
</svg>
