<?xml version="1.0" encoding="UTF-8"?>
<svg width="256px" height="256px" viewBox="0 0 256 256" version="1.1" xmlns="http://www.w3.org/2000/svg">
    <g>
        <path d="M130.535156,125.973437 L219.996094,125.973437 C220.582813,129.753516 221,133.609766 221,137.722656 C221,162.53125 213.476563,183.300781 199.839844,198.652344 C186.203125,213.996094 167.265625,222 143.027344,222 C120.023438,222 100.582031,214.066406 84.703125,198.191406 C68.824219,182.324219 60.890625,162.886719 60.890625,139.882813 C60.890625,116.878906 68.824219,97.4375 84.703125,81.5703125 C100.582031,65.6953125 120.023438,57.7617188 143.027344,57.7617188 C164.640625,57.7617188 183.011719,64.6679688 198.140625,78.4726563 L175.296875,100.445313 C166.460938,92.1992188 155.847656,88.0742188 143.445313,88.0742188 C129.140625,88.0742188 116.945313,93.3007813 106.847656,103.753906 C96.75,114.207031 91.703125,126.347656 91.703125,140.167969 C91.703125,153.996094 96.75,166.128906 106.847656,176.582031 C116.945313,187.035156 129.140625,192.261719 143.445313,192.261719 C154.085938,192.261719 163.304688,189.945313 171.109375,185.320313 C178.90625,180.6875 184.460938,174.804688 187.765625,167.664063 C191.070313,160.523438 192.894531,152.335938 193.246094,143.101563 L130.535156,143.101563 L130.535156,125.973437 Z" fill="#4285F4"/>
    </g>
</svg>
