<?xml version="1.0" encoding="UTF-8"?>
<svg width="256px" height="256px" viewBox="0 0 256 256" version="1.1" xmlns="http://www.w3.org/2000/svg">
    <g>
        <path d="M225.786,126.954 C226.975,121.634 227.336,116.145 226.857,110.699 C224.31,82.738 204.865,59.478 177.534,52.125 C166.784,23.028 137.932,4.677 107.666,8.358 C84.57,11.181 64.997,25.894 55.248,46.781 C27.565,48.772 4.29,68.549 0.523,96.493 C-1.946,114.749 4.065,132.797 16.935,146.095 C15.747,151.415 15.386,156.904 15.865,162.35 C18.412,190.311 37.857,213.571 65.188,220.924 C75.938,250.021 104.79,268.372 135.056,264.691 C158.152,261.868 177.725,247.155 187.474,226.268 C215.157,224.277 238.432,204.5 242.199,176.556 C244.668,158.3 238.657,140.252 225.786,126.954 Z M135.056,248.691 C111.96,251.514 89.571,238.263 80.188,216.924 C79.709,215.728 78.873,214.883 77.677,214.404 C54.597,208.062 38.412,188.561 36.223,164.849 C35.744,159.883 36.223,154.916 37.411,150.3 C37.89,148.753 37.411,147.207 36.223,146.095 C25.474,134.994 20.702,119.736 22.811,104.478 C25.835,81.542 45.28,64.444 68.721,62.803 C69.917,62.803 71.113,62.453 71.952,61.608 C80.188,43.607 96.374,30.707 116.179,28.234 C141.339,25.061 165.596,40.319 174.192,64.444 C174.671,65.64 175.507,66.485 176.703,66.964 C199.783,73.306 215.968,92.807 218.157,116.519 C218.636,121.485 218.157,126.452 216.969,131.068 C216.49,132.615 216.969,134.161 218.157,135.273 C228.906,146.374 233.678,161.632 231.569,176.89 C228.545,199.826 209.1,216.924 185.659,218.565 C184.463,218.565 183.267,218.915 182.428,219.76 C174.192,237.761 158.006,250.661 138.201,253.134 L135.056,248.691 Z" fill="#000000"/>
    </g>
</svg>
