<?xml version="1.0" encoding="UTF-8" standalone="no"?>
<svg width="432.071px" height="445.383px" viewBox="0 0 432.071 445.383" version="1.1" xmlns="http://www.w3.org/2000/svg">
    <title>PostgreSQL</title>
    <g fill="#336791">
        <path d="M216.035,0.002c-11.81,0.097-23.265,1.551-33.988,4.247c-30.503,7.672-44.842,25.491-44.842,25.491   c-0.005-0.004-48.395,49.011-31.971,118.925c3.576,15.213,10.997,30.286,19.867,42.604c6.322,8.775,13.33,16.297,20.081,22.701   c-20.692-4.775-38.838-11.304-53.622-18.776c0.833,2.551,1.725,5.063,2.674,7.534c7.568,19.739,19.015,36.744,32.874,49.363   c-16.733-3.583-31.778-8.673-44.401-14.647c16.137,30.601,37.152,52.256,61.431,63.924c-6.464,3.897-12.074,10.172-15.234,17.797   c-4.931,11.897-2.893,25.398,5.072,33.672c-0.029,0.023-0.057,0.046-0.085,0.069c-0.907,0.751-10.889,9.317-7.356,21.285   c1.592,5.397,5.033,10.006,9.873,13.316c-0.374,2.125-0.446,4.352-0.198,6.636c0.859,7.891,5.892,14.838,13.038,18.061   c-1.314,2.13-2.186,4.527-2.514,7.037c-1.759,13.493,13.886,24.561,25.014,28.339c9.814,3.33,20.602,4.953,30.603,5.493   c-0.51,0.603-1.02,1.205-1.529,1.808c-10.635,12.621-21.272,25.241-31.907,37.862c-3.563,4.228-2.564,8.95,0.772,12.406   c3.336,3.456,8.033,4.601,12.406,2.315c13.528-7.087,27.055-14.173,40.583-21.259c-0.082,0.459-0.164,0.918-0.246,1.377   c-1.806,10.101-3.613,20.203-5.419,30.304c-0.892,4.986,1.459,9.072,5.419,10.862c3.96,1.79,8.796,0.751,11.633-3.087   c8.804-11.916,17.607-23.833,26.411-35.749c0.241-0.326,0.481-0.652,0.722-0.979c0.241,0.326,0.481,0.652,0.722,0.979   c8.804,11.916,17.607,23.833,26.411,35.749c2.837,3.838,7.673,4.877,11.633,3.087c3.96-1.79,6.311-5.876,5.419-10.862   c-1.806-10.101-3.613-20.203-5.419-30.304c-0.082-0.459-0.164-0.918-0.246-1.377c13.528,7.087,27.055,14.173,40.583,21.259   c4.373,2.286,9.07,1.141,12.406-2.315c3.336-3.456,4.335-8.178,0.772-12.406c-10.635-12.621-21.272-25.241-31.907-37.862   c-0.51-0.603-1.02-1.205-1.529-1.808c10.001-0.54,20.789-2.163,30.603-5.493c11.128-3.778,26.773-14.846,25.014-28.339   c-0.328-2.51-1.2-4.907-2.514-7.037c7.146-3.223,12.179-10.17,13.038-18.061c0.248-2.284,0.176-4.511-0.198-6.636   c4.84-3.31,8.281-7.919,9.873-13.316c3.533-11.968-6.449-20.534-7.356-21.285c-0.029-0.023-0.057-0.046-0.085-0.069   c7.965-8.274,10.003-21.775,5.072-33.672c-3.16-7.625-8.77-13.9-15.234-17.797c24.279-11.668,45.294-33.323,61.431-63.924   c-12.623,5.974-27.668,11.064-44.401,14.647c13.859-12.619,25.306-29.624,32.874-49.363c0.949-2.471,1.841-4.983,2.674-7.534   c-14.784,7.472-32.93,14.001-53.622,18.776c6.751-6.404,13.759-13.926,20.081-22.701c8.87-12.318,16.291-27.391,19.867-42.604   c16.424-69.914-31.971-118.925-31.971-118.925c0,0-14.339-17.819-44.842-25.491C239.3,1.553,227.845,0.099,216.035,0.002z"/>
    </g>
</svg>
