<?xml version="1.0" encoding="UTF-8"?>
<svg width="256px" height="256px" viewBox="0 0 256 256" version="1.1" xmlns="http://www.w3.org/2000/svg">
    <g>
        <path d="M210.483381,73.8236374 C207.827698,72.9095503 205.075867,72.0446761 202.24247,71.2267368 C202.708172,69.3261098 203.135596,67.4500894 203.515631,65.6059664 C209.753843,35.3248922 205.675082,10.9302478 191.747328,2.89849283 C178.392359,-4.80289661 156.551327,3.22703567 134.492936,22.4237776 C132.371761,24.2697233 130.244662,26.2241201 128.118477,28.2723861 C126.701777,26.917204 125.287358,25.6075897 123.876584,24.3549348 C100.758745,3.82852863 77.5866802,-4.82157937 63.6725966,3.23806212 C50.3303869,10.9804407 46.3792156,33.8624768 51.9945178,62.5955921 C52.5367729,65.3128269 53.1706189,68.0644015 53.8873982,70.8451777 C50.6078941,71.7648617 47.4418534,72.7590827 44.4125156,73.8236374 C17.3093297,83.5871357 -0.0001,98.4437169 -0.0001,113.667995 C-0.0001,129.344484 18.5815786,145.14747 46.8116526,155.149232 C49.0394553,155.918663 51.3511025,156.626577 53.7333796,157.302466 C52.9600965,160.280615 52.2875179,163.209598 51.7229345,166.068777 C46.3687351,194.283474 50.4720474,216.58868 63.8461538,224.314381 C77.6147997,232.30364 100.616745,223.961012 123.105772,204.291596 C124.969257,202.624154 126.832744,200.85435 128.696231,198.984155 C130.983981,201.100176 133.27073,203.112904 135.546505,205.021242 C157.393822,223.801576 179.13698,231.578813 192.427885,223.839146 C206.163606,215.82659 210.517654,191.769888 204.772401,162.329884 C204.335884,160.312509 203.84341,158.243919 203.299011,156.127869 C204.973981,155.613753 206.616206,155.074941 208.218093,154.509435 C237.975847,144.440631 257.000001,128.867742 257.000001,113.667995 C257.000001,98.4437169 239.213674,83.5871357 210.483381,73.8236374 Z" fill="#61DAFB"/>
        <path d="M128.221661,148.935532 C139.258999,148.935532 148.221661,139.972869 148.221661,128.935532 C148.221661,117.898194 139.258999,108.935532 128.221661,108.935532 C117.184324,108.935532 108.221661,117.898194 108.221661,128.935532 C108.221661,139.972869 117.184324,148.935532 128.221661,148.935532 Z" fill="#61DAFB"/>
    </g>
</svg>
