<?xml version="1.0" encoding="UTF-8" standalone="no"?>
<svg width="256px" height="220px" viewBox="0 0 256 220" version="1.1" xmlns="http://www.w3.org/2000/svg">
    <title>Redis</title>
    <g fill="#DC382D">
        <path d="M245.97,168.943c-13.662,7.121-84.434,36.22-99.501,44.075c-15.067,7.856-23.437,7.78-35.34,2.09   c-11.902-5.69-87.216-36.112-100.783-42.597C3.566,169.271,0,166.535,0,163.951v-25.876c0,0,98.05-21.345,113.879-27.024   c15.828-5.679,21.32-5.884,34.79-0.95c13.472,4.936,94.018,19.468,107.331,24.344c0,0-0.001,21.177-0.001,21.177   C256,160.164,259.632,161.822,245.97,168.943z"/>
        <path d="M245.965,123.629c-13.661,7.118-84.431,36.218-99.498,44.072c-15.066,7.857-23.436,7.78-35.338,2.09   c-11.903-5.686-87.214-36.113-100.78-42.594c-13.566-6.485-13.85-10.948-0.524-16.166c13.326-5.22,88.224-34.605,104.055-40.284   c15.828-5.677,21.319-5.884,34.789-0.948c13.471,4.934,83.819,32.935,97.13,37.81C259.209,112.684,259.628,116.513,245.965,123.629z"/>
        <path d="M245.97,95.062c-13.662,7.117-84.434,36.218-99.501,44.072c-15.067,7.857-23.437,7.78-35.34,2.09   c-11.903-5.686-87.216-36.112-100.783-42.595c-13.566-6.483-13.85-10.947-0.524-16.167c13.326-5.218,88.226-34.605,104.055-40.284   c15.828-5.679,21.32-5.885,34.79-0.95c13.472,4.934,83.817,32.936,97.131,37.811C259.214,84.117,259.632,87.945,245.97,95.062z"/>
    </g>
</svg>
