<?xml version="1.0" encoding="UTF-8"?>
<svg width="512" height="512" fill="none" version="1.1" viewBox="0 0 512 512" xmlns="http://www.w3.org/2000/svg">
<path d="M256,0C114.615,0,0,114.615,0,256S114.615,512,256,512,512,397.385,512,256,397.385,0,256,0ZM169.62,368.289c-19.091-19.091-25.455-47.728-19.091-76.364,12.727-57.273,63.637-89.091,133.818-95.455-12.727-25.455-44.545-44.545-89.091-38.182-25.455,6.364-44.545,19.091-63.637,31.818-6.364,6.364-12.727,6.364-19.091,0l-12.727-12.727c-6.364-6.364-6.364-12.727,0-19.091,25.455-25.455,57.273-38.182,95.455-44.545,63.637-12.727,127.273,12.727,153.818,63.637,19.091,38.182,19.091,82.728,12.727,121.909-12.727,57.273-44.545,108.182-89.091,152.728-6.364,6.364-12.727,6.364-19.091,0l-12.727-12.727c-6.364-6.364-6.364-12.727,0-19.091,31.818-31.818,57.273-70,63.637-114.545-38.182,0-70,6.364-95.455,25.455C189.62,342.834,182.347,355.562,169.62,368.289Z" fill="#06B6D4"/>
</svg>
