<?xml version="1.0" encoding="UTF-8"?>
<svg width="512" height="512" fill="none" version="1.1" viewBox="0 0 512 512" xmlns="http://www.w3.org/2000/svg">
<rect width="512" height="512" rx="50" fill="#3178c6"/>
<path d="m317 407v-50c8.9 0 15.9-2.3 21-6.9 5.1-4.6 7.7-11.5 7.7-20.6 0-9.4-2.5-16.3-7.4-20.9-4.9-4.5-12.1-6.8-21.3-6.8h-26.7v105.2h-41.3v-140h68c11.7 0 22.2 1.9 31.3 5.7 9.1 3.8 16.2 9.3 21.3 16.6s7.7 16.1 7.7 26.3c0 10.4-2.7 19.3-8 26.6s-12.9 12.6-22.7 15.8c8.6 1.8 15.7 6.5 21.3 14.1s8.3 17.3 8.3 29.1v14.2c0 5.1 0.6 9.8 1.7 14 1.1 4.2 3.1 7.3 5.7 9.3v6.3zm-116-44.3h-64.3l-14.7 44.3h-42.7l68.7-140h41.7l69 140h-43zm-55.7-33h47l-23.3-70.3z" fill="#fff"/>
</svg>
