<?xml version="1.0" encoding="UTF-8"?>
<svg width="256px" height="256px" viewBox="0 0 256 256" version="1.1" xmlns="http://www.w3.org/2000/svg">
    <g>
        <path d="M127.979,0 C62.547,0 66.622,27.656 66.622,27.656 L66.735,56.555 L128.796,56.555 L128.796,64.627 L41.664,64.627 C41.664,64.627 0,59.876 0,128.189 C0,196.502 36.339,193.389 36.339,193.389 L57.893,193.389 L57.893,163.526 C57.893,163.526 56.924,127.187 93.787,127.187 L155.507,127.187 C155.507,127.187 190.786,128.187 190.786,93.786 L190.786,35.401 C190.786,35.401 196.251,0 127.979,0 Z M93.787,19.584 C100.944,19.584 106.752,25.392 106.752,32.549 C106.752,39.706 100.944,45.514 93.787,45.514 C86.63,45.514 80.822,39.706 80.822,32.549 C80.822,25.392 86.63,19.584 93.787,19.584 Z" fill="#3C78A9"/>
        <path d="M128.021,256 C193.453,256 189.378,228.344 189.378,228.344 L189.265,199.445 L127.204,199.445 L127.204,191.373 L214.336,191.373 C214.336,191.373 256,196.124 256,127.811 C256,59.498 219.661,62.611 219.661,62.611 L198.107,62.611 L198.107,92.474 C198.107,92.474 199.076,128.813 162.213,128.813 L100.493,128.813 C100.493,128.813 65.214,127.813 65.214,162.214 L65.214,220.599 C65.214,220.599 59.749,256 128.021,256 Z M162.213,236.416 C155.056,236.416 149.248,230.608 149.248,223.451 C149.248,216.294 155.056,210.486 162.213,210.486 C169.37,210.486 175.178,216.294 175.178,223.451 C175.178,230.608 169.37,236.416 162.213,236.416 Z" fill="#FFC331"/>
    </g>
</svg>
